<!-- icon666.com - MILLIONS vector ICONS FREE --><svg id="Layer_1" enable-background="new 0 0 511.981 511.981" viewBox="0 0 511.981 511.981" xmlns="http://www.w3.org/2000/svg"><path d="m504.143 55.033c-6.249-7.672-15.628-11.898-26.412-11.898-5.818 0-11.982 1.218-18.32 3.619l-433.455 164.23c-23.047 8.734-26.149 21.881-25.947 28.94.201 7.024 4.012 19.878 27.21 27.298l91.925 33.687 48.447 110.897c4.87 15.338 15.046 26.098 28.034 29.588 2.994.805 6.051 1.201 9.13 1.201 10.548 0 21.348-4.645 30.675-13.405l40.138-37.71 97.935 67.408c8.82 6.518 18.417 9.96 27.775 9.959 18.994-.001 34.143-13.905 38.594-35.423l70.891-342.863c2.913-14.091.562-26.708-6.62-35.528zm-354.534 240.671 125.091-67.081-87.18 79.969c-3.104 2.847-4.833 6.858-4.838 11.038-.006.154-.025.304-.026.458l-.301 50.572zm65.281 111.62c-.925.869-1.852 1.633-2.768 2.298l.367-61.561 37.791 26.012zm266.494-322.838-70.89 342.862c-.715 3.457-3.045 11.499-9.218 11.499-2.883 0-6.459-1.484-10.069-4.18-.155-.116-.312-.228-.471-.337l-107.969-74.315c-.015-.01-.03-.02-.044-.03l-61.044-42.017 161.255-147.916c5.572-5.111 6.469-13.57 2.092-19.736-4.376-6.166-12.658-8.11-19.321-4.537l-236.544 126.85-91.927-33.687c-.067-.025-.134-.049-.202-.073l433.009-164.061c3.649-1.383 6.196-1.673 7.69-1.673.741 0 2.531.082 3.149.842.793.973 1.791 4.282.504 10.509z" fill="#000000" style="fill: rgb(89, 92, 95);"></path></svg>